<svg width="128" height="128" viewBox="0 0 128 128" fill="none" xmlns="http://www.w3.org/2000/svg">
<mask id="mask0_532_54" style="mask-type:luminance" maskUnits="userSpaceOnUse" x="0" y="0" width="128" height="128">
<path d="M110.149 -6.44331e-07L0 17.8513L17.8513 128L128 110.149L110.149 -6.44331e-07Z" fill="white"/>
</mask>
<g mask="url(#mask0_532_54)">
<path d="M105.635 52.3354C107.863 61.668 106.95 71.4758 103.037 80.2366C99.1239 88.9974 92.4292 96.2226 83.991 100.791C75.5532 105.359 65.8435 107.016 56.3682 105.503C46.8926 103.99 38.1813 99.3941 31.5848 92.4257C24.9882 85.4576 20.8753 76.5077 19.8838 66.9636C18.8923 57.4199 21.0777 47.8153 26.1011 39.6402C31.1244 31.465 38.705 25.1757 47.6672 21.7479C56.6293 18.32 66.472 17.9452 75.6687 20.6815" stroke="#1C2E4A" stroke-width="12" stroke-linecap="round" stroke-linejoin="round"/>
<path d="M65.4948 74.024C65.4948 74.024 50.7214 68.691 57.6205 60.1765L91.1464 26.5931" stroke="#1C2E4A" stroke-width="12" stroke-linecap="round" stroke-linejoin="round"/>
<path d="M103.479 34.2541L102.044 35.337C101.326 35.8786 100.314 35.7853 99.7074 35.1216L83.4799 17.3739C83.1329 16.994 82.9712 16.4802 83.0383 15.97L83.2755 14.1652C83.4097 13.1454 84.3931 12.4627 85.3956 12.6936L100.387 16.1471C101.078 16.3062 101.603 16.8676 101.717 17.5672L104.151 32.5832C104.254 33.2215 103.996 33.8646 103.479 34.2541Z" fill="#1C2E4A"/>
</g>
</svg>
