<svg width="64" height="64" viewBox="0 0 64 64" fill="none" xmlns="http://www.w3.org/2000/svg">
<mask id="mask0_532_69" style="mask-type:luminance" maskUnits="userSpaceOnUse" x="0" y="0" width="64" height="64">
<path d="M55.0744 -3.22166e-07L0 8.92564L8.92564 64L64 55.0744L55.0744 -3.22166e-07Z" fill="white"/>
</mask>
<g mask="url(#mask0_532_69)">
<path d="M52.8174 26.1677C53.9317 30.834 53.4751 35.7379 51.5187 40.1183C49.562 44.4987 46.2146 48.1113 41.9955 50.3953C37.7766 52.6796 32.9217 53.5078 28.1841 52.7515C23.4463 51.9952 19.0907 49.6971 15.7924 46.2128C12.4941 42.7288 10.4376 38.2538 9.94188 33.4818C9.44615 28.71 10.5388 23.9076 13.0505 19.8201C15.5622 15.7325 19.3525 12.5878 23.8336 10.8739C28.3147 9.16002 33.236 8.97259 37.8343 10.3407" stroke="#1C2E4A" stroke-width="6" stroke-linecap="round" stroke-linejoin="round"/>
<path d="M32.7474 37.012C32.7474 37.012 25.3607 34.3455 28.8103 30.0882L45.5732 13.2966" stroke="#1C2E4A" stroke-width="6" stroke-linecap="round" stroke-linejoin="round"/>
<path d="M51.7397 17.127L51.0221 17.6685C50.6631 17.9393 50.1571 17.8927 49.8537 17.5608L41.7399 8.68693C41.5665 8.49702 41.4856 8.24011 41.5192 7.98499L41.6377 7.08262C41.7049 6.57269 42.1965 6.23135 42.6978 6.34681L50.1937 8.07356C50.5391 8.15311 50.8017 8.43379 50.8586 8.78361L52.0754 16.2916C52.127 16.6108 51.9978 16.9323 51.7397 17.127Z" fill="#1C2E4A"/>
</g>
</svg>
