<svg width="256" height="256" viewBox="0 0 256 256" fill="none" xmlns="http://www.w3.org/2000/svg">
<mask id="mask0_532_46" style="mask-type:luminance" maskUnits="userSpaceOnUse" x="0" y="0" width="256" height="256">
<path d="M220.297 2.52603e-06L0 35.7026L35.7026 256L256 220.297L220.297 2.52603e-06Z" fill="white"/>
</mask>
<g mask="url(#mask0_532_46)">
<path d="M211.268 104.671C215.726 123.336 213.899 142.952 206.074 160.473C198.247 177.995 184.857 192.445 167.981 201.581C151.105 210.718 131.686 214.031 112.736 211.006C93.7842 207.981 76.3617 198.788 63.1685 184.851C49.9754 170.915 41.7496 153.015 39.7665 133.927C37.7836 114.84 42.1544 95.6306 52.2011 79.2805C62.2479 62.93 77.409 50.3514 95.3334 43.4957C113.258 36.6401 132.943 35.8904 151.336 41.363" stroke="#1C2E4A" stroke-width="20" stroke-linecap="round" stroke-linejoin="round"/>
<path d="M130.99 148.048C130.99 148.048 101.444 137.382 115.242 120.353L182.294 53.1863" stroke="#1C2E4A" stroke-width="20" stroke-linecap="round" stroke-linejoin="round"/>
<path d="M206.959 68.5081L204.088 70.674C202.652 71.7572 200.628 71.5707 199.415 70.2433L166.96 34.7477C166.266 33.9881 165.942 32.9605 166.077 31.94L166.551 28.3305C166.819 26.2908 168.786 24.9254 170.791 25.3873L200.775 32.2943C202.156 32.6124 203.207 33.7352 203.434 35.1345L208.301 65.1665C208.508 66.4431 207.991 67.7293 206.959 68.5081Z" fill="#1C2E4A"/>
</g>
</svg>
