<svg width="32" height="32" viewBox="0 0 32 32" fill="none" xmlns="http://www.w3.org/2000/svg">
<mask id="mask0_532_76" style="mask-type:luminance" maskUnits="userSpaceOnUse" x="0" y="0" width="32" height="32">
<path d="M27.5372 7.46831e-06L0 4.46283L4.46282 32L32 27.5372L27.5372 7.46831e-06Z" fill="white"/>
</mask>
<g mask="url(#mask0_532_76)">
<path d="M26.4082 13.0838C26.9654 15.417 26.7371 17.869 25.7588 20.0592C24.7805 22.2494 23.1068 24.0557 20.9973 25.1977C18.8878 26.3398 16.4604 26.7539 14.0916 26.3757C11.7227 25.9976 9.54484 24.8485 7.8957 23.1064C6.24656 21.3644 5.21833 19.1269 4.97045 16.7409C4.72259 14.355 5.26893 11.9538 6.52478 9.91005C7.78062 7.86624 9.67576 6.29392 11.9163 5.43696C14.1568 4.58 16.6175 4.48629 18.9167 5.17036" stroke="#1C2E4A" stroke-width="3" stroke-linecap="round" stroke-linejoin="round"/>
<path d="M16.3737 18.506C16.3737 18.506 12.6803 17.1728 14.4051 15.0441L22.7866 6.64828" stroke="#1C2E4A" stroke-width="3" stroke-linecap="round" stroke-linejoin="round"/>
<path d="M25.8699 8.56352L25.511 8.83426C25.3316 8.96965 25.0785 8.94633 24.9268 8.78041L20.87 4.34347C20.7832 4.24851 20.7428 4.12006 20.7596 3.9925L20.8189 3.54132C20.8524 3.28635 21.0983 3.11568 21.3489 3.17341L25.0968 4.03678C25.2696 4.07656 25.4009 4.2169 25.4293 4.39181L26.0377 8.14581C26.0635 8.30539 25.9989 8.46617 25.8699 8.56352Z" fill="#1C2E4A"/>
</g>
</svg>
